#!OML:ASF E:\CV Data\Top Level 1\Subject 1\Session 1\player.ASF
:FULLY-SPECIFIED
:DEGREES
1155
root -0.206799 17.4069 5.51131 -1.95658 28.2735 -12.6543
lowerback 14.3789 3.69307 2.41668
upperback 1.73922 5.58401 3.98225
thorax -6.37633 2.73507 1.75476
lowerneck 4.00614 -19.0602 -19.3806
upperneck -4.66036 -27.0776 31.5309
head 5.4036 -13.8122 10.5057
rclavicle -4.51862e-014 3.93345e-014
rhumerus 363.264 343.026 678.29
rradius 26.5713
rwrist -8.06882
rhand -25.6165 3.52966
rfingers 7.12502
rthumb 0.916167 -26.4481
lclavicle -4.51862e-014 3.93345e-014
lhumerus -41.3553 9.31462 73.9073
lradius 47.1519
lwrist -0.842758
lhand -14.6698 5.7206
lfingers 7.12502
lthumb 11.4832 35.3861
rfemur -8.93957 -12.5171 14.8334
rtibia 58.1365
rfoot 0.577775 -1.05807
rtoes -5.79963
lfemur -31.3106 -10.1906 -4.65857
ltibia 31.9601
lfoot -4.22984 -14.1978
ltoes -3.19989
1156
root -0.272682 17.3701 5.4873 -2.18219 27.6256 -12.5025
lowerback 14.2296 3.64964 2.35729
upperback 1.65241 5.50333 3.85462
thorax -6.37684 2.69466 1.67555
lowerneck 3.82029 -18.9324 -19.4395
upperneck -3.82536 -27.0321 31.1087
head 5.59587 -13.7274 10.3614
rclavicle -5.62312e-014 2.5842e-014
rhumerus 364.21 343.47 678.399
rradius 27.3794
rwrist -9.05835
rhand -26.3945 3.46581
rfingers 7.12502
rthumb 0.164711 -26.5139
lclavicle -5.62312e-014 2.5842e-014
lhumerus -41.4676 9.74844 73.335
lradius 47.413
lwrist 0.0528457
lhand -15.6647 5.9306
lfingers 7.12502
lthumb 10.5236 35.6472
rfemur -8.84903 -12.4895 15.4288
rtibia 57.4733
rfoot 0.690457 -0.180345
rtoes -7.18894
lfemur -31.1524 -10.0672 -4.50781
ltibia 32.2932
lfoot -4.32346 -13.7671
ltoes -3.62852
1157
root -0.338106 17.3465 5.46135 -2.37531 26.9514 -12.3386
lowerback 14.0732 3.61298 2.30014
upperback 1.5635 5.43241 3.73265
thorax -6.37629 2.6591 1.59945
lowerneck 3.61964 -18.7989 -19.5193
upperneck -3.00123 -26.9714 30.6884
head 5.78919 -13.6367 10.2235
rclavicle -1.09605e-013 1.68967e-015
rhumerus 365.242 343.647 678.353
rradius 28.1886
rwrist -10.1131
rhand -27.0821 3.45488
rfingers 7.12502
rthumb -0.499423 -26.5243
lclavicle -1.09605e-013 1.68967e-015
lhumerus -41.5208 10.2164 72.7607
lradius 47.5705
lwrist 0.855045
lhand -16.4847 6.10526
lfingers 7.12502
lthumb 9.73257 35.8604
rfemur -8.72664 -12.4214 16.0467
rtibia 56.6966
rfoot 0.77003 0.363368
rtoes -8.99842
lfemur -30.9889 -9.94326 -4.3611
ltibia 32.6196
lfoot -4.42292 -13.3023
ltoes -4.05907
1158
root -0.405528 17.3209 5.43272 -2.54213 26.2782 -12.1679
lowerback 13.9168 3.57894 2.24946
upperback 1.46863 5.3668 3.6142
thorax -6.38203 2.62596 1.52214
lowerneck 3.43068 -18.6603 -19.6088
upperneck -2.2142 -26.8944 30.28
head 5.97115 -13.5434 10.0974
rclavicle -2.19657e-014 1.98785e-015
rhumerus 366.334 343.584 678.151
rradius 29.0056
rwrist -11.22
rhand -27.685 3.50529
rfingers 7.12502
rthumb -1.08168 -26.4717
lclavicle -2.19657e-014 1.98785e-015
lhumerus -41.5089 10.708 72.1775
lradius 47.6108
lwrist 1.51845
lhand -17.0791 6.23159
lfingers 7.12502
lthumb 9.15906 36.0127
rfemur -8.59059 -12.351 16.6766
rtibia 55.891
rfoot 0.671858 0.319774
rtoes -11.4139
lfemur -30.8742 -9.82277 -4.20696
ltibia 32.9672
lfoot -4.51245 -12.8303
ltoes -4.48607
1159
root -0.474695 17.2937 5.40227 -2.69901 25.6087 -11.9905
lowerback 13.7686 3.5482 2.20449
upperback 1.37194 5.30721 3.49717
thorax -6.394 2.59555 1.44138
lowerneck 3.25648 -18.519 -19.6967
upperneck -1.46911 -26.8027 29.8795
head 6.13754 -13.4485 9.97991
rclavicle 1.39895e-013 5.725e-014
rhumerus 367.455 343.325 677.794
rradius 29.8574
rwrist -12.3672
rhand -28.2037 3.62044
rfingers 7.12502
rthumb -1.58267 -26.3534
lclavicle 1.39895e-013 5.725e-014
lhumerus -41.4357 11.1922 71.6004
lradius 47.549
lwrist 2.09168
lhand -17.5251 6.36732
lfingers 7.12502
lthumb 8.72862 36.1668
rfemur -8.39359 -12.3035 17.3095
rtibia 55.0641
rfoot 0.294154 -0.515639
rtoes -14.2795
lfemur -30.7476 -9.70796 -4.04924
ltibia 33.2532
lfoot -4.55236 -12.3674
ltoes -4.8908
